<mxfile host="Electron" agent="Mozilla/5.0 (Windows NT 10.0; Win64; x64) AppleWebKit/537.36 (KHTML, like Gecko) draw.io/26.2.2 Chrome/134.0.6998.178 Electron/35.1.2 Safari/537.36" version="26.2.2">
  <diagram name="Page-1" id="klLKufNjEMABRukIhCHT">
    <mxGraphModel dx="2274" dy="779" grid="1" gridSize="10" guides="1" tooltips="1" connect="1" arrows="1" fold="1" page="1" pageScale="1" pageWidth="1200" pageHeight="1920" math="0" shadow="0">
      <root>
        <mxCell id="0" />
        <mxCell id="1" parent="0" />
        <mxCell id="yeSQ0_9H9f_iC3TppMp1-2" value="&lt;span&gt;&lt;font style=&quot;font-size: 32px;&quot;&gt;Data Mart(Star Schema)&lt;/font&gt;&lt;/span&gt;" style="text;html=1;align=center;verticalAlign=middle;resizable=0;points=[];autosize=1;strokeColor=#6c8ebf;fillColor=#dae8fc;fontStyle=1" vertex="1" parent="1">
          <mxGeometry x="-1065" y="30" width="370" height="50" as="geometry" />
        </mxCell>
        <mxCell id="yeSQ0_9H9f_iC3TppMp1-3" value="gold.dim_customers" style="shape=table;startSize=30;container=1;collapsible=1;childLayout=tableLayout;fixedRows=1;rowLines=0;fontStyle=1;align=center;resizeLast=1;html=1;fillColor=#ffe6cc;strokeColor=#d79b00;rounded=1;" vertex="1" parent="1">
          <mxGeometry x="-1030" y="260" width="180" height="300" as="geometry">
            <mxRectangle x="-670" y="310" width="150" height="30" as="alternateBounds" />
          </mxGeometry>
        </mxCell>
        <mxCell id="yeSQ0_9H9f_iC3TppMp1-4" value="" style="shape=tableRow;horizontal=0;startSize=0;swimlaneHead=0;swimlaneBody=0;fillColor=none;collapsible=0;dropTarget=0;points=[[0,0.5],[1,0.5]];portConstraint=eastwest;top=0;left=0;right=0;bottom=1;strokeColor=#d79b00;fontStyle=1" vertex="1" parent="yeSQ0_9H9f_iC3TppMp1-3">
          <mxGeometry y="30" width="180" height="30" as="geometry" />
        </mxCell>
        <mxCell id="yeSQ0_9H9f_iC3TppMp1-5" value="PK" style="shape=partialRectangle;connectable=0;fillColor=none;top=0;left=0;bottom=0;right=0;fontStyle=1;overflow=hidden;whiteSpace=wrap;html=1;strokeColor=#d79b00;" vertex="1" parent="yeSQ0_9H9f_iC3TppMp1-4">
          <mxGeometry width="30" height="30" as="geometry">
            <mxRectangle width="30" height="30" as="alternateBounds" />
          </mxGeometry>
        </mxCell>
        <mxCell id="yeSQ0_9H9f_iC3TppMp1-6" value="customer_key" style="shape=partialRectangle;connectable=0;fillColor=none;top=0;left=0;bottom=0;right=0;align=left;spacingLeft=6;fontStyle=5;overflow=hidden;whiteSpace=wrap;html=1;strokeColor=#d79b00;" vertex="1" parent="yeSQ0_9H9f_iC3TppMp1-4">
          <mxGeometry x="30" width="150" height="30" as="geometry">
            <mxRectangle width="150" height="30" as="alternateBounds" />
          </mxGeometry>
        </mxCell>
        <mxCell id="yeSQ0_9H9f_iC3TppMp1-7" value="" style="shape=tableRow;horizontal=0;startSize=0;swimlaneHead=0;swimlaneBody=0;fillColor=none;collapsible=0;dropTarget=0;points=[[0,0.5],[1,0.5]];portConstraint=eastwest;top=0;left=0;right=0;bottom=0;strokeColor=#d79b00;fontStyle=1" vertex="1" parent="yeSQ0_9H9f_iC3TppMp1-3">
          <mxGeometry y="60" width="180" height="30" as="geometry" />
        </mxCell>
        <mxCell id="yeSQ0_9H9f_iC3TppMp1-8" value="" style="shape=partialRectangle;connectable=0;fillColor=none;top=0;left=0;bottom=0;right=0;editable=1;overflow=hidden;whiteSpace=wrap;html=1;strokeColor=#d79b00;fontStyle=1" vertex="1" parent="yeSQ0_9H9f_iC3TppMp1-7">
          <mxGeometry width="30" height="30" as="geometry">
            <mxRectangle width="30" height="30" as="alternateBounds" />
          </mxGeometry>
        </mxCell>
        <mxCell id="yeSQ0_9H9f_iC3TppMp1-9" value="customer_id&lt;span style=&quot;white-space: pre;&quot;&gt;&#x9;&lt;/span&gt;&lt;span style=&quot;white-space: pre;&quot;&gt;&#x9;&lt;/span&gt;&lt;span style=&quot;white-space: pre;&quot;&gt;&#x9;&lt;/span&gt;&lt;span style=&quot;white-space: pre;&quot;&gt;&#x9;&lt;/span&gt;" style="shape=partialRectangle;connectable=0;fillColor=none;top=0;left=0;bottom=0;right=0;align=left;spacingLeft=6;overflow=hidden;whiteSpace=wrap;html=1;strokeColor=#d79b00;fontStyle=1" vertex="1" parent="yeSQ0_9H9f_iC3TppMp1-7">
          <mxGeometry x="30" width="150" height="30" as="geometry">
            <mxRectangle width="150" height="30" as="alternateBounds" />
          </mxGeometry>
        </mxCell>
        <mxCell id="yeSQ0_9H9f_iC3TppMp1-10" value="" style="shape=tableRow;horizontal=0;startSize=0;swimlaneHead=0;swimlaneBody=0;fillColor=none;collapsible=0;dropTarget=0;points=[[0,0.5],[1,0.5]];portConstraint=eastwest;top=0;left=0;right=0;bottom=0;strokeColor=#d79b00;fontStyle=1" vertex="1" parent="yeSQ0_9H9f_iC3TppMp1-3">
          <mxGeometry y="90" width="180" height="30" as="geometry" />
        </mxCell>
        <mxCell id="yeSQ0_9H9f_iC3TppMp1-11" value="" style="shape=partialRectangle;connectable=0;fillColor=none;top=0;left=0;bottom=0;right=0;editable=1;overflow=hidden;whiteSpace=wrap;html=1;strokeColor=#d79b00;fontStyle=1" vertex="1" parent="yeSQ0_9H9f_iC3TppMp1-10">
          <mxGeometry width="30" height="30" as="geometry">
            <mxRectangle width="30" height="30" as="alternateBounds" />
          </mxGeometry>
        </mxCell>
        <mxCell id="yeSQ0_9H9f_iC3TppMp1-12" value="customer_number" style="shape=partialRectangle;connectable=0;fillColor=none;top=0;left=0;bottom=0;right=0;align=left;spacingLeft=6;overflow=hidden;whiteSpace=wrap;html=1;strokeColor=#d79b00;fontStyle=1" vertex="1" parent="yeSQ0_9H9f_iC3TppMp1-10">
          <mxGeometry x="30" width="150" height="30" as="geometry">
            <mxRectangle width="150" height="30" as="alternateBounds" />
          </mxGeometry>
        </mxCell>
        <mxCell id="yeSQ0_9H9f_iC3TppMp1-13" value="" style="shape=tableRow;horizontal=0;startSize=0;swimlaneHead=0;swimlaneBody=0;fillColor=none;collapsible=0;dropTarget=0;points=[[0,0.5],[1,0.5]];portConstraint=eastwest;top=0;left=0;right=0;bottom=0;strokeColor=#d79b00;fontStyle=1" vertex="1" parent="yeSQ0_9H9f_iC3TppMp1-3">
          <mxGeometry y="120" width="180" height="30" as="geometry" />
        </mxCell>
        <mxCell id="yeSQ0_9H9f_iC3TppMp1-14" value="" style="shape=partialRectangle;connectable=0;fillColor=none;top=0;left=0;bottom=0;right=0;editable=1;overflow=hidden;whiteSpace=wrap;html=1;strokeColor=#d79b00;fontStyle=1" vertex="1" parent="yeSQ0_9H9f_iC3TppMp1-13">
          <mxGeometry width="30" height="30" as="geometry">
            <mxRectangle width="30" height="30" as="alternateBounds" />
          </mxGeometry>
        </mxCell>
        <mxCell id="yeSQ0_9H9f_iC3TppMp1-15" value="first_name" style="shape=partialRectangle;connectable=0;fillColor=none;top=0;left=0;bottom=0;right=0;align=left;spacingLeft=6;overflow=hidden;whiteSpace=wrap;html=1;strokeColor=#d79b00;fontStyle=1" vertex="1" parent="yeSQ0_9H9f_iC3TppMp1-13">
          <mxGeometry x="30" width="150" height="30" as="geometry">
            <mxRectangle width="150" height="30" as="alternateBounds" />
          </mxGeometry>
        </mxCell>
        <mxCell id="yeSQ0_9H9f_iC3TppMp1-16" value="" style="shape=tableRow;horizontal=0;startSize=0;swimlaneHead=0;swimlaneBody=0;fillColor=none;collapsible=0;dropTarget=0;points=[[0,0.5],[1,0.5]];portConstraint=eastwest;top=0;left=0;right=0;bottom=0;strokeColor=#d79b00;fontStyle=1" vertex="1" parent="yeSQ0_9H9f_iC3TppMp1-3">
          <mxGeometry y="150" width="180" height="30" as="geometry" />
        </mxCell>
        <mxCell id="yeSQ0_9H9f_iC3TppMp1-17" value="" style="shape=partialRectangle;connectable=0;fillColor=none;top=0;left=0;bottom=0;right=0;editable=1;overflow=hidden;whiteSpace=wrap;html=1;strokeColor=#d79b00;fontStyle=1" vertex="1" parent="yeSQ0_9H9f_iC3TppMp1-16">
          <mxGeometry width="30" height="30" as="geometry">
            <mxRectangle width="30" height="30" as="alternateBounds" />
          </mxGeometry>
        </mxCell>
        <mxCell id="yeSQ0_9H9f_iC3TppMp1-18" value="last_name&lt;span style=&quot;white-space: pre;&quot;&gt;&#x9;&lt;/span&gt;" style="shape=partialRectangle;connectable=0;fillColor=none;top=0;left=0;bottom=0;right=0;align=left;spacingLeft=6;overflow=hidden;whiteSpace=wrap;html=1;strokeColor=#d79b00;fontStyle=1" vertex="1" parent="yeSQ0_9H9f_iC3TppMp1-16">
          <mxGeometry x="30" width="150" height="30" as="geometry">
            <mxRectangle width="150" height="30" as="alternateBounds" />
          </mxGeometry>
        </mxCell>
        <mxCell id="yeSQ0_9H9f_iC3TppMp1-19" value="" style="shape=tableRow;horizontal=0;startSize=0;swimlaneHead=0;swimlaneBody=0;fillColor=none;collapsible=0;dropTarget=0;points=[[0,0.5],[1,0.5]];portConstraint=eastwest;top=0;left=0;right=0;bottom=0;strokeColor=#d79b00;fontStyle=1" vertex="1" parent="yeSQ0_9H9f_iC3TppMp1-3">
          <mxGeometry y="180" width="180" height="30" as="geometry" />
        </mxCell>
        <mxCell id="yeSQ0_9H9f_iC3TppMp1-20" value="" style="shape=partialRectangle;connectable=0;fillColor=none;top=0;left=0;bottom=0;right=0;editable=1;overflow=hidden;whiteSpace=wrap;html=1;strokeColor=#d79b00;fontStyle=1" vertex="1" parent="yeSQ0_9H9f_iC3TppMp1-19">
          <mxGeometry width="30" height="30" as="geometry">
            <mxRectangle width="30" height="30" as="alternateBounds" />
          </mxGeometry>
        </mxCell>
        <mxCell id="yeSQ0_9H9f_iC3TppMp1-21" value="country" style="shape=partialRectangle;connectable=0;fillColor=none;top=0;left=0;bottom=0;right=0;align=left;spacingLeft=6;overflow=hidden;whiteSpace=wrap;html=1;strokeColor=#d79b00;fontStyle=1" vertex="1" parent="yeSQ0_9H9f_iC3TppMp1-19">
          <mxGeometry x="30" width="150" height="30" as="geometry">
            <mxRectangle width="150" height="30" as="alternateBounds" />
          </mxGeometry>
        </mxCell>
        <mxCell id="yeSQ0_9H9f_iC3TppMp1-31" value="" style="shape=tableRow;horizontal=0;startSize=0;swimlaneHead=0;swimlaneBody=0;fillColor=none;collapsible=0;dropTarget=0;points=[[0,0.5],[1,0.5]];portConstraint=eastwest;top=0;left=0;right=0;bottom=0;strokeColor=#d79b00;fontStyle=1" vertex="1" parent="yeSQ0_9H9f_iC3TppMp1-3">
          <mxGeometry y="210" width="180" height="30" as="geometry" />
        </mxCell>
        <mxCell id="yeSQ0_9H9f_iC3TppMp1-32" value="" style="shape=partialRectangle;connectable=0;fillColor=none;top=0;left=0;bottom=0;right=0;editable=1;overflow=hidden;whiteSpace=wrap;html=1;strokeColor=#d79b00;fontStyle=1" vertex="1" parent="yeSQ0_9H9f_iC3TppMp1-31">
          <mxGeometry width="30" height="30" as="geometry">
            <mxRectangle width="30" height="30" as="alternateBounds" />
          </mxGeometry>
        </mxCell>
        <mxCell id="yeSQ0_9H9f_iC3TppMp1-33" value="martial_status" style="shape=partialRectangle;connectable=0;fillColor=none;top=0;left=0;bottom=0;right=0;align=left;spacingLeft=6;overflow=hidden;whiteSpace=wrap;html=1;strokeColor=#d79b00;fontStyle=1" vertex="1" parent="yeSQ0_9H9f_iC3TppMp1-31">
          <mxGeometry x="30" width="150" height="30" as="geometry">
            <mxRectangle width="150" height="30" as="alternateBounds" />
          </mxGeometry>
        </mxCell>
        <mxCell id="yeSQ0_9H9f_iC3TppMp1-22" value="" style="shape=tableRow;horizontal=0;startSize=0;swimlaneHead=0;swimlaneBody=0;fillColor=none;collapsible=0;dropTarget=0;points=[[0,0.5],[1,0.5]];portConstraint=eastwest;top=0;left=0;right=0;bottom=0;strokeColor=#d79b00;fontStyle=1" vertex="1" parent="yeSQ0_9H9f_iC3TppMp1-3">
          <mxGeometry y="240" width="180" height="30" as="geometry" />
        </mxCell>
        <mxCell id="yeSQ0_9H9f_iC3TppMp1-23" value="" style="shape=partialRectangle;connectable=0;fillColor=none;top=0;left=0;bottom=0;right=0;editable=1;overflow=hidden;whiteSpace=wrap;html=1;strokeColor=#d79b00;fontStyle=1" vertex="1" parent="yeSQ0_9H9f_iC3TppMp1-22">
          <mxGeometry width="30" height="30" as="geometry">
            <mxRectangle width="30" height="30" as="alternateBounds" />
          </mxGeometry>
        </mxCell>
        <mxCell id="yeSQ0_9H9f_iC3TppMp1-24" value="gender" style="shape=partialRectangle;connectable=0;fillColor=none;top=0;left=0;bottom=0;right=0;align=left;spacingLeft=6;overflow=hidden;whiteSpace=wrap;html=1;strokeColor=#d79b00;fontStyle=1" vertex="1" parent="yeSQ0_9H9f_iC3TppMp1-22">
          <mxGeometry x="30" width="150" height="30" as="geometry">
            <mxRectangle width="150" height="30" as="alternateBounds" />
          </mxGeometry>
        </mxCell>
        <mxCell id="yeSQ0_9H9f_iC3TppMp1-25" value="" style="shape=tableRow;horizontal=0;startSize=0;swimlaneHead=0;swimlaneBody=0;fillColor=none;collapsible=0;dropTarget=0;points=[[0,0.5],[1,0.5]];portConstraint=eastwest;top=0;left=0;right=0;bottom=0;strokeColor=#d79b00;fontStyle=1" vertex="1" parent="yeSQ0_9H9f_iC3TppMp1-3">
          <mxGeometry y="270" width="180" height="30" as="geometry" />
        </mxCell>
        <mxCell id="yeSQ0_9H9f_iC3TppMp1-26" value="" style="shape=partialRectangle;connectable=0;fillColor=none;top=0;left=0;bottom=0;right=0;editable=1;overflow=hidden;whiteSpace=wrap;html=1;strokeColor=#d79b00;fontStyle=1" vertex="1" parent="yeSQ0_9H9f_iC3TppMp1-25">
          <mxGeometry width="30" height="30" as="geometry">
            <mxRectangle width="30" height="30" as="alternateBounds" />
          </mxGeometry>
        </mxCell>
        <mxCell id="yeSQ0_9H9f_iC3TppMp1-27" value="birthdate" style="shape=partialRectangle;connectable=0;fillColor=none;top=0;left=0;bottom=0;right=0;align=left;spacingLeft=6;overflow=hidden;whiteSpace=wrap;html=1;strokeColor=#d79b00;fontStyle=1" vertex="1" parent="yeSQ0_9H9f_iC3TppMp1-25">
          <mxGeometry x="30" width="150" height="30" as="geometry">
            <mxRectangle width="150" height="30" as="alternateBounds" />
          </mxGeometry>
        </mxCell>
        <mxCell id="yeSQ0_9H9f_iC3TppMp1-34" value="gold.dim_sales" style="shape=table;startSize=30;container=1;collapsible=1;childLayout=tableLayout;fixedRows=1;rowLines=0;fontStyle=1;align=center;resizeLast=1;html=1;fillColor=#dae8fc;strokeColor=#6c8ebf;rounded=1;" vertex="1" parent="1">
          <mxGeometry x="-690" y="260" width="180" height="300" as="geometry">
            <mxRectangle x="-670" y="310" width="150" height="30" as="alternateBounds" />
          </mxGeometry>
        </mxCell>
        <mxCell id="yeSQ0_9H9f_iC3TppMp1-38" value="" style="shape=tableRow;horizontal=0;startSize=0;swimlaneHead=0;swimlaneBody=0;fillColor=none;collapsible=0;dropTarget=0;points=[[0,0.5],[1,0.5]];portConstraint=eastwest;top=0;left=0;right=0;bottom=0;strokeColor=#6c8ebf;fontStyle=1" vertex="1" parent="yeSQ0_9H9f_iC3TppMp1-34">
          <mxGeometry y="30" width="180" height="30" as="geometry" />
        </mxCell>
        <mxCell id="yeSQ0_9H9f_iC3TppMp1-39" value="" style="shape=partialRectangle;connectable=0;fillColor=none;top=0;left=0;bottom=0;right=0;editable=1;overflow=hidden;whiteSpace=wrap;html=1;strokeColor=#6c8ebf;fontStyle=1" vertex="1" parent="yeSQ0_9H9f_iC3TppMp1-38">
          <mxGeometry width="30" height="30" as="geometry">
            <mxRectangle width="30" height="30" as="alternateBounds" />
          </mxGeometry>
        </mxCell>
        <mxCell id="yeSQ0_9H9f_iC3TppMp1-40" value="order_number" style="shape=partialRectangle;connectable=0;fillColor=none;top=0;left=0;bottom=0;right=0;align=left;spacingLeft=6;overflow=hidden;whiteSpace=wrap;html=1;strokeColor=#6c8ebf;fontStyle=1" vertex="1" parent="yeSQ0_9H9f_iC3TppMp1-38">
          <mxGeometry x="30" width="150" height="30" as="geometry">
            <mxRectangle width="150" height="30" as="alternateBounds" />
          </mxGeometry>
        </mxCell>
        <mxCell id="yeSQ0_9H9f_iC3TppMp1-127" value="" style="shape=tableRow;horizontal=0;startSize=0;swimlaneHead=0;swimlaneBody=0;fillColor=none;collapsible=0;dropTarget=0;points=[[0,0.5],[1,0.5]];portConstraint=eastwest;top=0;left=0;right=0;bottom=0;strokeColor=#6c8ebf;fontStyle=1" vertex="1" parent="yeSQ0_9H9f_iC3TppMp1-34">
          <mxGeometry y="60" width="180" height="30" as="geometry" />
        </mxCell>
        <mxCell id="yeSQ0_9H9f_iC3TppMp1-128" value="FK1" style="shape=partialRectangle;connectable=0;fillColor=none;top=0;left=0;bottom=0;right=0;editable=1;overflow=hidden;whiteSpace=wrap;html=1;strokeColor=#6c8ebf;fontStyle=1" vertex="1" parent="yeSQ0_9H9f_iC3TppMp1-127">
          <mxGeometry width="30" height="30" as="geometry">
            <mxRectangle width="30" height="30" as="alternateBounds" />
          </mxGeometry>
        </mxCell>
        <mxCell id="yeSQ0_9H9f_iC3TppMp1-129" value="product_key&lt;span style=&quot;white-space: pre;&quot;&gt;&#x9;&lt;/span&gt;" style="shape=partialRectangle;connectable=0;fillColor=none;top=0;left=0;bottom=0;right=0;align=left;spacingLeft=6;overflow=hidden;whiteSpace=wrap;html=1;strokeColor=#6c8ebf;fontStyle=1" vertex="1" parent="yeSQ0_9H9f_iC3TppMp1-127">
          <mxGeometry x="30" width="150" height="30" as="geometry">
            <mxRectangle width="150" height="30" as="alternateBounds" />
          </mxGeometry>
        </mxCell>
        <mxCell id="yeSQ0_9H9f_iC3TppMp1-41" value="" style="shape=tableRow;horizontal=0;startSize=0;swimlaneHead=0;swimlaneBody=0;fillColor=none;collapsible=0;dropTarget=0;points=[[0,0.5],[1,0.5]];portConstraint=eastwest;top=0;left=0;right=0;bottom=0;strokeColor=#6c8ebf;fontStyle=1" vertex="1" parent="yeSQ0_9H9f_iC3TppMp1-34">
          <mxGeometry y="90" width="180" height="30" as="geometry" />
        </mxCell>
        <mxCell id="yeSQ0_9H9f_iC3TppMp1-42" value="FK2" style="shape=partialRectangle;connectable=0;fillColor=none;top=0;left=0;bottom=0;right=0;editable=1;overflow=hidden;whiteSpace=wrap;html=1;strokeColor=#6c8ebf;fontStyle=1" vertex="1" parent="yeSQ0_9H9f_iC3TppMp1-41">
          <mxGeometry width="30" height="30" as="geometry">
            <mxRectangle width="30" height="30" as="alternateBounds" />
          </mxGeometry>
        </mxCell>
        <mxCell id="yeSQ0_9H9f_iC3TppMp1-43" value="customer_key" style="shape=partialRectangle;connectable=0;fillColor=none;top=0;left=0;bottom=0;right=0;align=left;spacingLeft=6;overflow=hidden;whiteSpace=wrap;html=1;strokeColor=#6c8ebf;fontStyle=1" vertex="1" parent="yeSQ0_9H9f_iC3TppMp1-41">
          <mxGeometry x="30" width="150" height="30" as="geometry">
            <mxRectangle width="150" height="30" as="alternateBounds" />
          </mxGeometry>
        </mxCell>
        <mxCell id="yeSQ0_9H9f_iC3TppMp1-44" value="" style="shape=tableRow;horizontal=0;startSize=0;swimlaneHead=0;swimlaneBody=0;fillColor=none;collapsible=0;dropTarget=0;points=[[0,0.5],[1,0.5]];portConstraint=eastwest;top=0;left=0;right=0;bottom=0;strokeColor=#6c8ebf;fontStyle=1" vertex="1" parent="yeSQ0_9H9f_iC3TppMp1-34">
          <mxGeometry y="120" width="180" height="30" as="geometry" />
        </mxCell>
        <mxCell id="yeSQ0_9H9f_iC3TppMp1-45" value="" style="shape=partialRectangle;connectable=0;fillColor=none;top=0;left=0;bottom=0;right=0;editable=1;overflow=hidden;whiteSpace=wrap;html=1;strokeColor=#6c8ebf;fontStyle=1" vertex="1" parent="yeSQ0_9H9f_iC3TppMp1-44">
          <mxGeometry width="30" height="30" as="geometry">
            <mxRectangle width="30" height="30" as="alternateBounds" />
          </mxGeometry>
        </mxCell>
        <mxCell id="yeSQ0_9H9f_iC3TppMp1-46" value="order_date" style="shape=partialRectangle;connectable=0;fillColor=none;top=0;left=0;bottom=0;right=0;align=left;spacingLeft=6;overflow=hidden;whiteSpace=wrap;html=1;strokeColor=#6c8ebf;fontStyle=1" vertex="1" parent="yeSQ0_9H9f_iC3TppMp1-44">
          <mxGeometry x="30" width="150" height="30" as="geometry">
            <mxRectangle width="150" height="30" as="alternateBounds" />
          </mxGeometry>
        </mxCell>
        <mxCell id="yeSQ0_9H9f_iC3TppMp1-47" value="" style="shape=tableRow;horizontal=0;startSize=0;swimlaneHead=0;swimlaneBody=0;fillColor=none;collapsible=0;dropTarget=0;points=[[0,0.5],[1,0.5]];portConstraint=eastwest;top=0;left=0;right=0;bottom=0;strokeColor=#6c8ebf;fontStyle=1" vertex="1" parent="yeSQ0_9H9f_iC3TppMp1-34">
          <mxGeometry y="150" width="180" height="30" as="geometry" />
        </mxCell>
        <mxCell id="yeSQ0_9H9f_iC3TppMp1-48" value="" style="shape=partialRectangle;connectable=0;fillColor=none;top=0;left=0;bottom=0;right=0;editable=1;overflow=hidden;whiteSpace=wrap;html=1;strokeColor=#6c8ebf;fontStyle=1" vertex="1" parent="yeSQ0_9H9f_iC3TppMp1-47">
          <mxGeometry width="30" height="30" as="geometry">
            <mxRectangle width="30" height="30" as="alternateBounds" />
          </mxGeometry>
        </mxCell>
        <mxCell id="yeSQ0_9H9f_iC3TppMp1-49" value="shipping_date" style="shape=partialRectangle;connectable=0;fillColor=none;top=0;left=0;bottom=0;right=0;align=left;spacingLeft=6;overflow=hidden;whiteSpace=wrap;html=1;strokeColor=#6c8ebf;fontStyle=1" vertex="1" parent="yeSQ0_9H9f_iC3TppMp1-47">
          <mxGeometry x="30" width="150" height="30" as="geometry">
            <mxRectangle width="150" height="30" as="alternateBounds" />
          </mxGeometry>
        </mxCell>
        <mxCell id="yeSQ0_9H9f_iC3TppMp1-50" value="" style="shape=tableRow;horizontal=0;startSize=0;swimlaneHead=0;swimlaneBody=0;fillColor=none;collapsible=0;dropTarget=0;points=[[0,0.5],[1,0.5]];portConstraint=eastwest;top=0;left=0;right=0;bottom=0;strokeColor=#6c8ebf;fontStyle=1" vertex="1" parent="yeSQ0_9H9f_iC3TppMp1-34">
          <mxGeometry y="180" width="180" height="30" as="geometry" />
        </mxCell>
        <mxCell id="yeSQ0_9H9f_iC3TppMp1-51" value="" style="shape=partialRectangle;connectable=0;fillColor=none;top=0;left=0;bottom=0;right=0;editable=1;overflow=hidden;whiteSpace=wrap;html=1;strokeColor=#6c8ebf;fontStyle=1" vertex="1" parent="yeSQ0_9H9f_iC3TppMp1-50">
          <mxGeometry width="30" height="30" as="geometry">
            <mxRectangle width="30" height="30" as="alternateBounds" />
          </mxGeometry>
        </mxCell>
        <mxCell id="yeSQ0_9H9f_iC3TppMp1-52" value="due_date" style="shape=partialRectangle;connectable=0;fillColor=none;top=0;left=0;bottom=0;right=0;align=left;spacingLeft=6;overflow=hidden;whiteSpace=wrap;html=1;strokeColor=#6c8ebf;fontStyle=1" vertex="1" parent="yeSQ0_9H9f_iC3TppMp1-50">
          <mxGeometry x="30" width="150" height="30" as="geometry">
            <mxRectangle width="150" height="30" as="alternateBounds" />
          </mxGeometry>
        </mxCell>
        <mxCell id="yeSQ0_9H9f_iC3TppMp1-53" value="" style="shape=tableRow;horizontal=0;startSize=0;swimlaneHead=0;swimlaneBody=0;fillColor=none;collapsible=0;dropTarget=0;points=[[0,0.5],[1,0.5]];portConstraint=eastwest;top=0;left=0;right=0;bottom=0;strokeColor=#6c8ebf;fontStyle=1" vertex="1" parent="yeSQ0_9H9f_iC3TppMp1-34">
          <mxGeometry y="210" width="180" height="30" as="geometry" />
        </mxCell>
        <mxCell id="yeSQ0_9H9f_iC3TppMp1-54" value="" style="shape=partialRectangle;connectable=0;fillColor=none;top=0;left=0;bottom=0;right=0;editable=1;overflow=hidden;whiteSpace=wrap;html=1;strokeColor=#6c8ebf;fontStyle=1" vertex="1" parent="yeSQ0_9H9f_iC3TppMp1-53">
          <mxGeometry width="30" height="30" as="geometry">
            <mxRectangle width="30" height="30" as="alternateBounds" />
          </mxGeometry>
        </mxCell>
        <mxCell id="yeSQ0_9H9f_iC3TppMp1-55" value="sales_amount" style="shape=partialRectangle;connectable=0;fillColor=none;top=0;left=0;bottom=0;right=0;align=left;spacingLeft=6;overflow=hidden;whiteSpace=wrap;html=1;strokeColor=#6c8ebf;fontStyle=1" vertex="1" parent="yeSQ0_9H9f_iC3TppMp1-53">
          <mxGeometry x="30" width="150" height="30" as="geometry">
            <mxRectangle width="150" height="30" as="alternateBounds" />
          </mxGeometry>
        </mxCell>
        <mxCell id="yeSQ0_9H9f_iC3TppMp1-56" value="" style="shape=tableRow;horizontal=0;startSize=0;swimlaneHead=0;swimlaneBody=0;fillColor=none;collapsible=0;dropTarget=0;points=[[0,0.5],[1,0.5]];portConstraint=eastwest;top=0;left=0;right=0;bottom=0;strokeColor=#6c8ebf;fontStyle=1" vertex="1" parent="yeSQ0_9H9f_iC3TppMp1-34">
          <mxGeometry y="240" width="180" height="30" as="geometry" />
        </mxCell>
        <mxCell id="yeSQ0_9H9f_iC3TppMp1-57" value="" style="shape=partialRectangle;connectable=0;fillColor=none;top=0;left=0;bottom=0;right=0;editable=1;overflow=hidden;whiteSpace=wrap;html=1;strokeColor=#6c8ebf;fontStyle=1" vertex="1" parent="yeSQ0_9H9f_iC3TppMp1-56">
          <mxGeometry width="30" height="30" as="geometry">
            <mxRectangle width="30" height="30" as="alternateBounds" />
          </mxGeometry>
        </mxCell>
        <mxCell id="yeSQ0_9H9f_iC3TppMp1-58" value="quantity" style="shape=partialRectangle;connectable=0;fillColor=none;top=0;left=0;bottom=0;right=0;align=left;spacingLeft=6;overflow=hidden;whiteSpace=wrap;html=1;strokeColor=#6c8ebf;fontStyle=1" vertex="1" parent="yeSQ0_9H9f_iC3TppMp1-56">
          <mxGeometry x="30" width="150" height="30" as="geometry">
            <mxRectangle width="150" height="30" as="alternateBounds" />
          </mxGeometry>
        </mxCell>
        <mxCell id="yeSQ0_9H9f_iC3TppMp1-59" value="" style="shape=tableRow;horizontal=0;startSize=0;swimlaneHead=0;swimlaneBody=0;fillColor=none;collapsible=0;dropTarget=0;points=[[0,0.5],[1,0.5]];portConstraint=eastwest;top=0;left=0;right=0;bottom=0;strokeColor=#6c8ebf;fontStyle=1" vertex="1" parent="yeSQ0_9H9f_iC3TppMp1-34">
          <mxGeometry y="270" width="180" height="30" as="geometry" />
        </mxCell>
        <mxCell id="yeSQ0_9H9f_iC3TppMp1-60" value="" style="shape=partialRectangle;connectable=0;fillColor=none;top=0;left=0;bottom=0;right=0;editable=1;overflow=hidden;whiteSpace=wrap;html=1;strokeColor=#6c8ebf;fontStyle=1" vertex="1" parent="yeSQ0_9H9f_iC3TppMp1-59">
          <mxGeometry width="30" height="30" as="geometry">
            <mxRectangle width="30" height="30" as="alternateBounds" />
          </mxGeometry>
        </mxCell>
        <mxCell id="yeSQ0_9H9f_iC3TppMp1-61" value="price" style="shape=partialRectangle;connectable=0;fillColor=none;top=0;left=0;bottom=0;right=0;align=left;spacingLeft=6;overflow=hidden;whiteSpace=wrap;html=1;strokeColor=#6c8ebf;fontStyle=1" vertex="1" parent="yeSQ0_9H9f_iC3TppMp1-59">
          <mxGeometry x="30" width="150" height="30" as="geometry">
            <mxRectangle width="150" height="30" as="alternateBounds" />
          </mxGeometry>
        </mxCell>
        <mxCell id="yeSQ0_9H9f_iC3TppMp1-90" value="gold.dim_products" style="shape=table;startSize=30;container=1;collapsible=1;childLayout=tableLayout;fixedRows=1;rowLines=0;fontStyle=1;align=center;resizeLast=1;html=1;fillColor=#ffe6cc;strokeColor=#d79b00;rounded=1;" vertex="1" parent="1">
          <mxGeometry x="-400" y="260" width="180" height="330" as="geometry">
            <mxRectangle x="-670" y="310" width="150" height="30" as="alternateBounds" />
          </mxGeometry>
        </mxCell>
        <mxCell id="yeSQ0_9H9f_iC3TppMp1-91" value="" style="shape=tableRow;horizontal=0;startSize=0;swimlaneHead=0;swimlaneBody=0;fillColor=none;collapsible=0;dropTarget=0;points=[[0,0.5],[1,0.5]];portConstraint=eastwest;top=0;left=0;right=0;bottom=1;strokeColor=#d79b00;fontStyle=1" vertex="1" parent="yeSQ0_9H9f_iC3TppMp1-90">
          <mxGeometry y="30" width="180" height="30" as="geometry" />
        </mxCell>
        <mxCell id="yeSQ0_9H9f_iC3TppMp1-92" value="PK" style="shape=partialRectangle;connectable=0;fillColor=none;top=0;left=0;bottom=0;right=0;fontStyle=1;overflow=hidden;whiteSpace=wrap;html=1;strokeColor=#d79b00;" vertex="1" parent="yeSQ0_9H9f_iC3TppMp1-91">
          <mxGeometry width="30" height="30" as="geometry">
            <mxRectangle width="30" height="30" as="alternateBounds" />
          </mxGeometry>
        </mxCell>
        <mxCell id="yeSQ0_9H9f_iC3TppMp1-93" value="product_key" style="shape=partialRectangle;connectable=0;fillColor=none;top=0;left=0;bottom=0;right=0;align=left;spacingLeft=6;fontStyle=5;overflow=hidden;whiteSpace=wrap;html=1;strokeColor=#d79b00;" vertex="1" parent="yeSQ0_9H9f_iC3TppMp1-91">
          <mxGeometry x="30" width="150" height="30" as="geometry">
            <mxRectangle width="150" height="30" as="alternateBounds" />
          </mxGeometry>
        </mxCell>
        <mxCell id="yeSQ0_9H9f_iC3TppMp1-94" value="" style="shape=tableRow;horizontal=0;startSize=0;swimlaneHead=0;swimlaneBody=0;fillColor=none;collapsible=0;dropTarget=0;points=[[0,0.5],[1,0.5]];portConstraint=eastwest;top=0;left=0;right=0;bottom=0;strokeColor=#d79b00;fontStyle=1" vertex="1" parent="yeSQ0_9H9f_iC3TppMp1-90">
          <mxGeometry y="60" width="180" height="30" as="geometry" />
        </mxCell>
        <mxCell id="yeSQ0_9H9f_iC3TppMp1-95" value="" style="shape=partialRectangle;connectable=0;fillColor=none;top=0;left=0;bottom=0;right=0;editable=1;overflow=hidden;whiteSpace=wrap;html=1;strokeColor=#d79b00;fontStyle=1" vertex="1" parent="yeSQ0_9H9f_iC3TppMp1-94">
          <mxGeometry width="30" height="30" as="geometry">
            <mxRectangle width="30" height="30" as="alternateBounds" />
          </mxGeometry>
        </mxCell>
        <mxCell id="yeSQ0_9H9f_iC3TppMp1-96" value="product_id" style="shape=partialRectangle;connectable=0;fillColor=none;top=0;left=0;bottom=0;right=0;align=left;spacingLeft=6;overflow=hidden;whiteSpace=wrap;html=1;strokeColor=#d79b00;fontStyle=1" vertex="1" parent="yeSQ0_9H9f_iC3TppMp1-94">
          <mxGeometry x="30" width="150" height="30" as="geometry">
            <mxRectangle width="150" height="30" as="alternateBounds" />
          </mxGeometry>
        </mxCell>
        <mxCell id="yeSQ0_9H9f_iC3TppMp1-97" value="" style="shape=tableRow;horizontal=0;startSize=0;swimlaneHead=0;swimlaneBody=0;fillColor=none;collapsible=0;dropTarget=0;points=[[0,0.5],[1,0.5]];portConstraint=eastwest;top=0;left=0;right=0;bottom=0;strokeColor=#d79b00;fontStyle=1" vertex="1" parent="yeSQ0_9H9f_iC3TppMp1-90">
          <mxGeometry y="90" width="180" height="30" as="geometry" />
        </mxCell>
        <mxCell id="yeSQ0_9H9f_iC3TppMp1-98" value="" style="shape=partialRectangle;connectable=0;fillColor=none;top=0;left=0;bottom=0;right=0;editable=1;overflow=hidden;whiteSpace=wrap;html=1;strokeColor=#d79b00;fontStyle=1" vertex="1" parent="yeSQ0_9H9f_iC3TppMp1-97">
          <mxGeometry width="30" height="30" as="geometry">
            <mxRectangle width="30" height="30" as="alternateBounds" />
          </mxGeometry>
        </mxCell>
        <mxCell id="yeSQ0_9H9f_iC3TppMp1-99" value="prdouct_number" style="shape=partialRectangle;connectable=0;fillColor=none;top=0;left=0;bottom=0;right=0;align=left;spacingLeft=6;overflow=hidden;whiteSpace=wrap;html=1;strokeColor=#d79b00;fontStyle=1" vertex="1" parent="yeSQ0_9H9f_iC3TppMp1-97">
          <mxGeometry x="30" width="150" height="30" as="geometry">
            <mxRectangle width="150" height="30" as="alternateBounds" />
          </mxGeometry>
        </mxCell>
        <mxCell id="yeSQ0_9H9f_iC3TppMp1-100" value="" style="shape=tableRow;horizontal=0;startSize=0;swimlaneHead=0;swimlaneBody=0;fillColor=none;collapsible=0;dropTarget=0;points=[[0,0.5],[1,0.5]];portConstraint=eastwest;top=0;left=0;right=0;bottom=0;strokeColor=#d79b00;fontStyle=1" vertex="1" parent="yeSQ0_9H9f_iC3TppMp1-90">
          <mxGeometry y="120" width="180" height="30" as="geometry" />
        </mxCell>
        <mxCell id="yeSQ0_9H9f_iC3TppMp1-101" value="" style="shape=partialRectangle;connectable=0;fillColor=none;top=0;left=0;bottom=0;right=0;editable=1;overflow=hidden;whiteSpace=wrap;html=1;strokeColor=#d79b00;fontStyle=1" vertex="1" parent="yeSQ0_9H9f_iC3TppMp1-100">
          <mxGeometry width="30" height="30" as="geometry">
            <mxRectangle width="30" height="30" as="alternateBounds" />
          </mxGeometry>
        </mxCell>
        <mxCell id="yeSQ0_9H9f_iC3TppMp1-102" value="category_id" style="shape=partialRectangle;connectable=0;fillColor=none;top=0;left=0;bottom=0;right=0;align=left;spacingLeft=6;overflow=hidden;whiteSpace=wrap;html=1;strokeColor=#d79b00;fontStyle=1" vertex="1" parent="yeSQ0_9H9f_iC3TppMp1-100">
          <mxGeometry x="30" width="150" height="30" as="geometry">
            <mxRectangle width="150" height="30" as="alternateBounds" />
          </mxGeometry>
        </mxCell>
        <mxCell id="yeSQ0_9H9f_iC3TppMp1-103" value="" style="shape=tableRow;horizontal=0;startSize=0;swimlaneHead=0;swimlaneBody=0;fillColor=none;collapsible=0;dropTarget=0;points=[[0,0.5],[1,0.5]];portConstraint=eastwest;top=0;left=0;right=0;bottom=0;strokeColor=#d79b00;fontStyle=1" vertex="1" parent="yeSQ0_9H9f_iC3TppMp1-90">
          <mxGeometry y="150" width="180" height="30" as="geometry" />
        </mxCell>
        <mxCell id="yeSQ0_9H9f_iC3TppMp1-104" value="" style="shape=partialRectangle;connectable=0;fillColor=none;top=0;left=0;bottom=0;right=0;editable=1;overflow=hidden;whiteSpace=wrap;html=1;strokeColor=#d79b00;fontStyle=1" vertex="1" parent="yeSQ0_9H9f_iC3TppMp1-103">
          <mxGeometry width="30" height="30" as="geometry">
            <mxRectangle width="30" height="30" as="alternateBounds" />
          </mxGeometry>
        </mxCell>
        <mxCell id="yeSQ0_9H9f_iC3TppMp1-105" value="category" style="shape=partialRectangle;connectable=0;fillColor=none;top=0;left=0;bottom=0;right=0;align=left;spacingLeft=6;overflow=hidden;whiteSpace=wrap;html=1;strokeColor=#d79b00;fontStyle=1" vertex="1" parent="yeSQ0_9H9f_iC3TppMp1-103">
          <mxGeometry x="30" width="150" height="30" as="geometry">
            <mxRectangle width="150" height="30" as="alternateBounds" />
          </mxGeometry>
        </mxCell>
        <mxCell id="yeSQ0_9H9f_iC3TppMp1-106" value="" style="shape=tableRow;horizontal=0;startSize=0;swimlaneHead=0;swimlaneBody=0;fillColor=none;collapsible=0;dropTarget=0;points=[[0,0.5],[1,0.5]];portConstraint=eastwest;top=0;left=0;right=0;bottom=0;strokeColor=#d79b00;fontStyle=1" vertex="1" parent="yeSQ0_9H9f_iC3TppMp1-90">
          <mxGeometry y="180" width="180" height="30" as="geometry" />
        </mxCell>
        <mxCell id="yeSQ0_9H9f_iC3TppMp1-107" value="" style="shape=partialRectangle;connectable=0;fillColor=none;top=0;left=0;bottom=0;right=0;editable=1;overflow=hidden;whiteSpace=wrap;html=1;strokeColor=#d79b00;fontStyle=1" vertex="1" parent="yeSQ0_9H9f_iC3TppMp1-106">
          <mxGeometry width="30" height="30" as="geometry">
            <mxRectangle width="30" height="30" as="alternateBounds" />
          </mxGeometry>
        </mxCell>
        <mxCell id="yeSQ0_9H9f_iC3TppMp1-108" value="subcategory" style="shape=partialRectangle;connectable=0;fillColor=none;top=0;left=0;bottom=0;right=0;align=left;spacingLeft=6;overflow=hidden;whiteSpace=wrap;html=1;strokeColor=#d79b00;fontStyle=1" vertex="1" parent="yeSQ0_9H9f_iC3TppMp1-106">
          <mxGeometry x="30" width="150" height="30" as="geometry">
            <mxRectangle width="150" height="30" as="alternateBounds" />
          </mxGeometry>
        </mxCell>
        <mxCell id="yeSQ0_9H9f_iC3TppMp1-109" value="" style="shape=tableRow;horizontal=0;startSize=0;swimlaneHead=0;swimlaneBody=0;fillColor=none;collapsible=0;dropTarget=0;points=[[0,0.5],[1,0.5]];portConstraint=eastwest;top=0;left=0;right=0;bottom=0;strokeColor=#d79b00;fontStyle=1" vertex="1" parent="yeSQ0_9H9f_iC3TppMp1-90">
          <mxGeometry y="210" width="180" height="30" as="geometry" />
        </mxCell>
        <mxCell id="yeSQ0_9H9f_iC3TppMp1-110" value="" style="shape=partialRectangle;connectable=0;fillColor=none;top=0;left=0;bottom=0;right=0;editable=1;overflow=hidden;whiteSpace=wrap;html=1;strokeColor=#d79b00;fontStyle=1" vertex="1" parent="yeSQ0_9H9f_iC3TppMp1-109">
          <mxGeometry width="30" height="30" as="geometry">
            <mxRectangle width="30" height="30" as="alternateBounds" />
          </mxGeometry>
        </mxCell>
        <mxCell id="yeSQ0_9H9f_iC3TppMp1-111" value="maintenance" style="shape=partialRectangle;connectable=0;fillColor=none;top=0;left=0;bottom=0;right=0;align=left;spacingLeft=6;overflow=hidden;whiteSpace=wrap;html=1;strokeColor=#d79b00;fontStyle=1" vertex="1" parent="yeSQ0_9H9f_iC3TppMp1-109">
          <mxGeometry x="30" width="150" height="30" as="geometry">
            <mxRectangle width="150" height="30" as="alternateBounds" />
          </mxGeometry>
        </mxCell>
        <mxCell id="yeSQ0_9H9f_iC3TppMp1-112" value="" style="shape=tableRow;horizontal=0;startSize=0;swimlaneHead=0;swimlaneBody=0;fillColor=none;collapsible=0;dropTarget=0;points=[[0,0.5],[1,0.5]];portConstraint=eastwest;top=0;left=0;right=0;bottom=0;strokeColor=#d79b00;fontStyle=1" vertex="1" parent="yeSQ0_9H9f_iC3TppMp1-90">
          <mxGeometry y="240" width="180" height="30" as="geometry" />
        </mxCell>
        <mxCell id="yeSQ0_9H9f_iC3TppMp1-113" value="" style="shape=partialRectangle;connectable=0;fillColor=none;top=0;left=0;bottom=0;right=0;editable=1;overflow=hidden;whiteSpace=wrap;html=1;strokeColor=#d79b00;fontStyle=1" vertex="1" parent="yeSQ0_9H9f_iC3TppMp1-112">
          <mxGeometry width="30" height="30" as="geometry">
            <mxRectangle width="30" height="30" as="alternateBounds" />
          </mxGeometry>
        </mxCell>
        <mxCell id="yeSQ0_9H9f_iC3TppMp1-114" value="cost" style="shape=partialRectangle;connectable=0;fillColor=none;top=0;left=0;bottom=0;right=0;align=left;spacingLeft=6;overflow=hidden;whiteSpace=wrap;html=1;strokeColor=#d79b00;fontStyle=1" vertex="1" parent="yeSQ0_9H9f_iC3TppMp1-112">
          <mxGeometry x="30" width="150" height="30" as="geometry">
            <mxRectangle width="150" height="30" as="alternateBounds" />
          </mxGeometry>
        </mxCell>
        <mxCell id="yeSQ0_9H9f_iC3TppMp1-115" value="" style="shape=tableRow;horizontal=0;startSize=0;swimlaneHead=0;swimlaneBody=0;fillColor=none;collapsible=0;dropTarget=0;points=[[0,0.5],[1,0.5]];portConstraint=eastwest;top=0;left=0;right=0;bottom=0;strokeColor=#d79b00;fontStyle=1" vertex="1" parent="yeSQ0_9H9f_iC3TppMp1-90">
          <mxGeometry y="270" width="180" height="30" as="geometry" />
        </mxCell>
        <mxCell id="yeSQ0_9H9f_iC3TppMp1-116" value="" style="shape=partialRectangle;connectable=0;fillColor=none;top=0;left=0;bottom=0;right=0;editable=1;overflow=hidden;whiteSpace=wrap;html=1;strokeColor=#d79b00;fontStyle=1" vertex="1" parent="yeSQ0_9H9f_iC3TppMp1-115">
          <mxGeometry width="30" height="30" as="geometry">
            <mxRectangle width="30" height="30" as="alternateBounds" />
          </mxGeometry>
        </mxCell>
        <mxCell id="yeSQ0_9H9f_iC3TppMp1-117" value="product_line" style="shape=partialRectangle;connectable=0;fillColor=none;top=0;left=0;bottom=0;right=0;align=left;spacingLeft=6;overflow=hidden;whiteSpace=wrap;html=1;strokeColor=#d79b00;fontStyle=1" vertex="1" parent="yeSQ0_9H9f_iC3TppMp1-115">
          <mxGeometry x="30" width="150" height="30" as="geometry">
            <mxRectangle width="150" height="30" as="alternateBounds" />
          </mxGeometry>
        </mxCell>
        <mxCell id="yeSQ0_9H9f_iC3TppMp1-118" value="" style="shape=tableRow;horizontal=0;startSize=0;swimlaneHead=0;swimlaneBody=0;fillColor=none;collapsible=0;dropTarget=0;points=[[0,0.5],[1,0.5]];portConstraint=eastwest;top=0;left=0;right=0;bottom=0;strokeColor=#d79b00;fontStyle=1" vertex="1" parent="yeSQ0_9H9f_iC3TppMp1-90">
          <mxGeometry y="300" width="180" height="30" as="geometry" />
        </mxCell>
        <mxCell id="yeSQ0_9H9f_iC3TppMp1-119" value="" style="shape=partialRectangle;connectable=0;fillColor=none;top=0;left=0;bottom=0;right=0;editable=1;overflow=hidden;whiteSpace=wrap;html=1;strokeColor=#d79b00;fontStyle=1" vertex="1" parent="yeSQ0_9H9f_iC3TppMp1-118">
          <mxGeometry width="30" height="30" as="geometry">
            <mxRectangle width="30" height="30" as="alternateBounds" />
          </mxGeometry>
        </mxCell>
        <mxCell id="yeSQ0_9H9f_iC3TppMp1-120" value="start_date" style="shape=partialRectangle;connectable=0;fillColor=none;top=0;left=0;bottom=0;right=0;align=left;spacingLeft=6;overflow=hidden;whiteSpace=wrap;html=1;strokeColor=#d79b00;fontStyle=1" vertex="1" parent="yeSQ0_9H9f_iC3TppMp1-118">
          <mxGeometry x="30" width="150" height="30" as="geometry">
            <mxRectangle width="150" height="30" as="alternateBounds" />
          </mxGeometry>
        </mxCell>
        <mxCell id="yeSQ0_9H9f_iC3TppMp1-121" value="" style="edgeStyle=entityRelationEdgeStyle;fontSize=12;html=1;endArrow=ERoneToMany;startArrow=ERmandOne;rounded=0;entryX=0;entryY=0.5;entryDx=0;entryDy=0;" edge="1" parent="1" target="yeSQ0_9H9f_iC3TppMp1-41">
          <mxGeometry width="100" height="100" relative="1" as="geometry">
            <mxPoint x="-850" y="310" as="sourcePoint" />
            <mxPoint x="-750" y="210" as="targetPoint" />
          </mxGeometry>
        </mxCell>
        <mxCell id="yeSQ0_9H9f_iC3TppMp1-123" value="" style="edgeStyle=entityRelationEdgeStyle;fontSize=12;html=1;endArrow=ERoneToMany;startArrow=ERmandOne;rounded=0;" edge="1" parent="1" source="yeSQ0_9H9f_iC3TppMp1-91" target="yeSQ0_9H9f_iC3TppMp1-38">
          <mxGeometry width="100" height="100" relative="1" as="geometry">
            <mxPoint x="-470" y="290" as="sourcePoint" />
            <mxPoint x="-370" y="190" as="targetPoint" />
            <Array as="points">
              <mxPoint x="-439" y="250" />
            </Array>
          </mxGeometry>
        </mxCell>
        <mxCell id="yeSQ0_9H9f_iC3TppMp1-130" value="&lt;h1 style=&quot;margin-top: 0px;&quot;&gt;&lt;font style=&quot;font-size: 20px;&quot;&gt;Sales Calucation&lt;/font&gt;&lt;/h1&gt;&lt;div&gt;&lt;font style=&quot;font-size: 16px;&quot;&gt;sales = quantity * price&lt;/font&gt;&lt;/div&gt;" style="text;html=1;whiteSpace=wrap;overflow=hidden;rounded=0;" vertex="1" parent="1">
          <mxGeometry x="-600" y="590" width="180" height="80" as="geometry" />
        </mxCell>
        <mxCell id="yeSQ0_9H9f_iC3TppMp1-131" value="" style="endArrow=none;dashed=1;html=1;dashPattern=1 3;strokeWidth=2;rounded=0;exitX=0.5;exitY=0;exitDx=0;exitDy=0;" edge="1" parent="1" source="yeSQ0_9H9f_iC3TppMp1-130" target="yeSQ0_9H9f_iC3TppMp1-53">
          <mxGeometry width="50" height="50" relative="1" as="geometry">
            <mxPoint x="-490" y="570" as="sourcePoint" />
            <mxPoint x="-440" y="520" as="targetPoint" />
          </mxGeometry>
        </mxCell>
      </root>
    </mxGraphModel>
  </diagram>
</mxfile>
